<svg xmlns="http://www.w3.org/2000/svg" version="1.1" xmlns:xlink="http://www.w3.org/1999/xlink" width="512" height="512" x="0" y="0" viewBox="0 0 100 100" style="enable-background:new 0 0 512 512" xml:space="preserve" class=""><g><g fill-rule="evenodd" clip-rule="evenodd"><path d="m63.571 53.198-5.573 5.576A11.32 11.32 0 0 1 50 62.085c-3 0-5.876-1.192-7.998-3.311l-5.573-5.576L6.36 83.266a6.785 6.785 0 0 0 2.925.663h81.428c1.023 0 2.02-.231 2.925-.663zM96.837 19.933c.432.904.663 1.902.663 2.924v54.286c0 1.022-.23 2.02-.663 2.924L66.77 50zM3.163 19.933 33.23 50 3.163 80.067a6.785 6.785 0 0 1-.663-2.924V22.857c0-1.022.23-2.02.663-2.924z" fill="#000000" opacity="1" data-original="#000000" class=""></path><path d="M93.639 16.734a6.785 6.785 0 0 0-2.925-.663H9.286c-1.023 0-2.02.231-2.925.663l38.841 38.84c1.272 1.273 2.998 1.988 4.798 1.988s3.526-.715 4.798-1.989z" fill="#000000" opacity="1" data-original="#000000" class=""></path></g></g></svg>