<svg xmlns="http://www.w3.org/2000/svg" version="1.1" xmlns:xlink="http://www.w3.org/1999/xlink" width="512" height="512" x="0" y="0" viewBox="0 0 512 512" style="enable-background:new 0 0 512 512" xml:space="preserve" class=""><g><path d="M501.333 512H10.667C4.775 512 0 507.224 0 501.333V10.667C0 4.775 4.775 0 10.667 0h490.667C507.224 0 512 4.775 512 10.667v490.667c0 5.89-4.776 10.666-10.667 10.666zm-480-21.334h469.333V21.333H21.333z" fill="#fff" opacity="1" data-original="#000000" class=""></path><path d="M147.136 150.198H67.861c-5.891 0-10.667-4.776-10.667-10.667V58.912c0-5.891 4.775-10.667 10.667-10.667h79.275c5.891 0 10.667 4.775 10.667 10.667v80.619c0 5.891-4.776 10.667-10.667 10.667zm-68.608-21.334h57.941V69.579H78.528zM295.638 150.198h-79.275c-5.891 0-10.667-4.776-10.667-10.667V58.912c0-5.891 4.775-10.667 10.667-10.667h79.275c5.892 0 10.667 4.775 10.667 10.667v80.619c0 5.891-4.776 10.667-10.667 10.667zm-68.609-21.334h57.941V69.579h-57.941zM444.139 150.198h-79.274c-5.892 0-10.667-4.776-10.667-10.667V58.912c0-5.891 4.775-10.667 10.667-10.667h79.274c5.891 0 10.667 4.775 10.667 10.667v80.619c0 5.891-4.777 10.667-10.667 10.667zm-68.608-21.334h57.94V69.579h-57.94zM147.136 294.784H67.861c-5.891 0-10.667-4.776-10.667-10.667v-80.608c0-5.891 4.775-10.667 10.667-10.667h79.275c5.891 0 10.667 4.775 10.667 10.667v80.608c0 5.891-4.776 10.667-10.667 10.667zM78.528 273.45h57.941v-59.274H78.528zM295.638 294.784h-79.275c-5.891 0-10.667-4.776-10.667-10.667v-80.608c0-5.891 4.775-10.667 10.667-10.667h79.275c5.892 0 10.667 4.775 10.667 10.667v80.608c0 5.891-4.776 10.667-10.667 10.667zm-68.609-21.334h57.941v-59.274h-57.941zM444.139 294.784h-79.274c-5.892 0-10.667-4.776-10.667-10.667v-80.608c0-5.891 4.775-10.667 10.667-10.667h79.274c5.891 0 10.667 4.775 10.667 10.667v80.608c0 5.891-4.777 10.667-10.667 10.667zm-68.608-21.334h57.94v-59.274h-57.94zM147.136 439.393H67.861c-5.891 0-10.667-4.776-10.667-10.667v-80.619c0-5.891 4.775-10.667 10.667-10.667h79.275c5.891 0 10.667 4.776 10.667 10.667v80.619c0 5.89-4.776 10.667-10.667 10.667zm-68.608-21.334h57.941v-59.285H78.528zM295.638 512h-79.275c-5.891 0-10.667-4.775-10.667-10.667V348.106c0-5.892 4.775-10.667 10.667-10.667h79.275c5.892 0 10.667 4.775 10.667 10.667v153.227c0 5.892-4.776 10.667-10.667 10.667zm-68.609-21.334h57.941V358.773h-57.941zM444.139 439.393h-79.274c-5.892 0-10.667-4.776-10.667-10.667v-80.619c0-5.891 4.775-10.667 10.667-10.667h79.274c5.891 0 10.667 4.776 10.667 10.667v80.619c0 5.89-4.777 10.667-10.667 10.667zm-68.608-21.334h57.94v-59.285h-57.94z" fill="#fff" opacity="1" data-original="#000000" class=""></path></g></svg>