<svg xmlns="http://www.w3.org/2000/svg" version="1.1" xmlns:xlink="http://www.w3.org/1999/xlink" width="512" height="512" x="0" y="0" viewBox="0 0 512 512" style="enable-background:new 0 0 512 512" xml:space="preserve" class=""><g><path d="m512 231.637-.156-160.75h-64.148v53.323c-41.041-58.504-108.981-96.756-185.874-96.756-109.316 0-200.57 77.294-222.116 180.209h66.168c20.133-67.059 82.421-116.061 155.948-116.061 57.831 0 108.703 30.316 137.583 75.888h-48.311v64.148l160.75.156v-.156zM0 280.324v160.789h64.187V387.79c41.041 58.504 108.981 96.756 185.874 96.756 109.316 0 200.57-77.294 222.116-180.209h-66.168c-20.133 67.059-82.421 116.061-155.948 116.061-57.831 0-108.703-30.316-137.583-75.888h48.311v-64.187H0z" fill="#fff" opacity="1" data-original="#000000" class=""></path></g></svg>