<svg xmlns="http://www.w3.org/2000/svg" version="1.1" xmlns:xlink="http://www.w3.org/1999/xlink" width="512" height="512" x="0" y="0" viewBox="0 0 64 64" style="enable-background:new 0 0 512 512" xml:space="preserve" class=""><g><path d="M61 4.1H3a1 1 0 0 0-1 1v53.8a1 1 0 0 0 1 1h58a1 1 0 0 0 1-1V5.1a1 1 0 0 0-1-1zm-1 53.8H4V6.1h56z" fill="#000000" opacity="1" data-original="#000000"></path><path d="M7.827 54.919H29.8a1 1 0 0 0 1-1V10.081a1 1 0 0 0-1-1H7.827a1 1 0 0 0-1 1v43.838a1 1 0 0 0 1 1zm1-43.838H28.8v41.838H8.827zM34.2 54.919h21.973a1 1 0 0 0 1-1V10.081a1 1 0 0 0-1-1H34.2a1 1 0 0 0-1 1v43.838a1 1 0 0 0 1 1zm1-43.838h19.973v41.838H35.2z" fill="#000000" opacity="1" data-original="#000000"></path><path d="m15.288 23.933 2.774-2.774a1 1 0 1 0-1.414-1.414l-2.774 2.774a1 1 0 1 0 1.414 1.414zM21.716 20.62 14.5 27.837a1 1 0 1 0 1.414 1.414l7.217-7.217a1 1 0 1 0-1.414-1.414zM41.7 23.933l2.774-2.774a1 1 0 0 0-1.414-1.414l-2.774 2.774a1 1 0 1 0 1.414 1.414zM48.132 20.62l-7.218 7.217a1 1 0 1 0 1.414 1.414l7.218-7.217a1 1 0 1 0-1.414-1.414z" fill="#000000" opacity="1" data-original="#000000"></path></g></svg>