<svg xmlns="http://www.w3.org/2000/svg" version="1.1" xmlns:xlink="http://www.w3.org/1999/xlink" width="512" height="512" x="0" y="0" viewBox="0 0 32 32" style="enable-background:new 0 0 512 512" xml:space="preserve" class=""><g><path d="M9 7V2h10v5a1 1 0 0 1-1 1h-8a1 1 0 0 1-1-1ZM8 30h16v-3.44H8Zm0-5.44h16v-2H8ZM29 8.7l-4.63-5.61A3 3 0 0 0 22.06 2H21v5a3 3 0 0 1-3 3h-8a3 3 0 0 1-3-3V2H5a3 3 0 0 0-3 3v22a3 3 0 0 0 3 3h1V20a3 3 0 0 1 3-3h14a3 3 0 0 1 3 3v10h1a3 3 0 0 0 3-3V10.92a3 3 0 0 0-1-2.22ZM23 19H9a1 1 0 0 0-1 1v.56h16V20a1 1 0 0 0-1-1Z" data-name="Layer 8" fill="#fff" opacity="1" data-original="#000000" class=""></path></g></svg>